<svg xmlns="http://www.w3.org/2000/svg" viewBox="0 0 10 8" width="10" height="8" shape-rendering="crispEdges"><rect x="3" y="0" width="2" height="1" fill="#1a0f08"/><rect x="2" y="1" width="1" height="1" fill="#1a0f08"/><rect x="3" y="1" width="1" height="1" fill="#f2c14e"/><rect x="4" y="1" width="1" height="1" fill="#ffe68a"/><rect x="5" y="1" width="1" height="1" fill="#1a0f08"/><rect x="7" y="1" width="1" height="1" fill="#1a0f08"/><rect x="1" y="2" width="1" height="1" fill="#1a0f08"/><rect x="2" y="2" width="1" height="1" fill="#f2c14e"/><rect x="3" y="2" width="2" height="1" fill="#ffe68a"/><rect x="5" y="2" width="1" height="1" fill="#f2c14e"/><rect x="6" y="2" width="1" height="1" fill="#1a0f08"/><rect x="7" y="2" width="1" height="1" fill="#f2c14e"/><rect x="8" y="2" width="1" height="1" fill="#1a0f08"/><rect x="0" y="3" width="1" height="1" fill="#1a0f08"/><rect x="1" y="3" width="1" height="1" fill="#f2c14e"/><rect x="2" y="3" width="1" height="1" fill="#ffe68a"/><rect x="3" y="3" width="5" height="1" fill="#f2c14e"/><rect x="8" y="3" width="1" height="1" fill="#b8801f"/><rect x="9" y="3" width="1" height="1" fill="#1a0f08"/><rect x="0" y="4" width="1" height="1" fill="#1a0f08"/><rect x="1" y="4" width="5" height="1" fill="#f2c14e"/><rect x="6" y="4" width="3" height="1" fill="#b8801f"/><rect x="9" y="4" width="1" height="1" fill="#1a0f08"/><rect x="1" y="5" width="1" height="1" fill="#1a0f08"/><rect x="2" y="5" width="2" height="1" fill="#f2c14e"/><rect x="4" y="5" width="4" height="1" fill="#b8801f"/><rect x="8" y="5" width="1" height="1" fill="#1a0f08"/><rect x="2" y="6" width="1" height="1" fill="#1a0f08"/><rect x="3" y="6" width="2" height="1" fill="#b8801f"/><rect x="5" y="6" width="3" height="1" fill="#1a0f08"/><rect x="3" y="7" width="2" height="1" fill="#1a0f08"/></svg>
