<svg xmlns="http://www.w3.org/2000/svg" viewBox="0 0 87 15" width="87" height="15" shape-rendering="crispEdges"><rect x="31" y="1" width="1" height="1" fill="#1a0f08"/><rect x="50" y="1" width="4" height="1" fill="#1a0f08"/><rect x="2" y="2" width="2" height="1" fill="#1a0f08"/><rect x="7" y="2" width="2" height="1" fill="#1a0f08"/><rect x="30" y="2" width="1" height="1" fill="#1a0f08"/><rect x="31" y="2" width="1" height="1" fill="#ffd23f"/><rect x="32" y="2" width="1" height="1" fill="#1a0f08"/><rect x="48" y="2" width="2" height="1" fill="#1a0f08"/><rect x="50" y="2" width="4" height="1" fill="#c8a064"/><rect x="54" y="2" width="1" height="1" fill="#1a0f08"/><rect x="1" y="3" width="1" height="1" fill="#1a0f08"/><rect x="2" y="3" width="2" height="1" fill="#d93a3a"/><rect x="4" y="3" width="1" height="1" fill="#1a0f08"/><rect x="6" y="3" width="1" height="1" fill="#1a0f08"/><rect x="7" y="3" width="2" height="1" fill="#d93a3a"/><rect x="9" y="3" width="1" height="1" fill="#1a0f08"/><rect x="16" y="3" width="1" height="1" fill="#1a0f08"/><rect x="29" y="3" width="1" height="1" fill="#1a0f08"/><rect x="30" y="3" width="1" height="1" fill="#ffd23f"/><rect x="31" y="3" width="1" height="1" fill="#ff8a1f"/><rect x="32" y="3" width="1" height="1" fill="#ffd23f"/><rect x="33" y="3" width="1" height="1" fill="#1a0f08"/><rect x="39" y="3" width="1" height="1" fill="#1a0f08"/><rect x="47" y="3" width="1" height="1" fill="#1a0f08"/><rect x="48" y="3" width="2" height="1" fill="#c8a064"/><rect x="50" y="3" width="3" height="1" fill="#e3c38a"/><rect x="53" y="3" width="2" height="1" fill="#c8a064"/><rect x="55" y="3" width="1" height="1" fill="#1a0f08"/><rect x="62" y="3" width="1" height="1" fill="#1a0f08"/><rect x="72" y="3" width="2" height="1" fill="#1a0f08"/><rect x="82" y="3" width="3" height="1" fill="#1a0f08"/><rect x="0" y="4" width="1" height="1" fill="#1a0f08"/><rect x="1" y="4" width="1" height="1" fill="#d93a3a"/><rect x="2" y="4" width="2" height="1" fill="#ff8a7a"/><rect x="4" y="4" width="1" height="1" fill="#d93a3a"/><rect x="5" y="4" width="1" height="1" fill="#1a0f08"/><rect x="6" y="4" width="4" height="1" fill="#d93a3a"/><rect x="10" y="4" width="1" height="1" fill="#1a0f08"/><rect x="15" y="4" width="1" height="1" fill="#1a0f08"/><rect x="16" y="4" width="1" height="1" fill="#f4ecd8"/><rect x="17" y="4" width="1" height="1" fill="#1a0f08"/><rect x="28" y="4" width="1" height="1" fill="#1a0f08"/><rect x="29" y="4" width="1" height="1" fill="#c9a26b"/><rect x="30" y="4" width="1" height="1" fill="#1a0f08"/><rect x="31" y="4" width="1" height="1" fill="#ffd23f"/><rect x="32" y="4" width="1" height="1" fill="#1a0f08"/><rect x="38" y="4" width="1" height="1" fill="#1a0f08"/><rect x="39" y="4" width="1" height="1" fill="#f4ecd8"/><rect x="40" y="4" width="1" height="1" fill="#1a0f08"/><rect x="46" y="4" width="1" height="1" fill="#1a0f08"/><rect x="47" y="4" width="1" height="1" fill="#c8a064"/><rect x="48" y="4" width="1" height="1" fill="#e3c38a"/><rect x="49" y="4" width="5" height="1" fill="#1a0f08"/><rect x="54" y="4" width="1" height="1" fill="#8a6436"/><rect x="55" y="4" width="1" height="1" fill="#c8a064"/><rect x="56" y="4" width="1" height="1" fill="#1a0f08"/><rect x="61" y="4" width="1" height="1" fill="#1a0f08"/><rect x="62" y="4" width="1" height="1" fill="#f4ecd8"/><rect x="63" y="4" width="1" height="1" fill="#1a0f08"/><rect x="71" y="4" width="1" height="1" fill="#1a0f08"/><rect x="72" y="4" width="1" height="1" fill="#f2c14e"/><rect x="73" y="4" width="1" height="1" fill="#ffe68a"/><rect x="74" y="4" width="1" height="1" fill="#1a0f08"/><rect x="76" y="4" width="1" height="1" fill="#1a0f08"/><rect x="81" y="4" width="1" height="1" fill="#1a0f08"/><rect x="82" y="4" width="3" height="1" fill="#f4ecd8"/><rect x="85" y="4" width="1" height="1" fill="#1a0f08"/><rect x="0" y="5" width="1" height="1" fill="#1a0f08"/><rect x="1" y="5" width="1" height="1" fill="#d93a3a"/><rect x="2" y="5" width="1" height="1" fill="#ff8a7a"/><rect x="3" y="5" width="7" height="1" fill="#d93a3a"/><rect x="10" y="5" width="1" height="1" fill="#1a0f08"/><rect x="14" y="5" width="1" height="1" fill="#1a0f08"/><rect x="15" y="5" width="2" height="1" fill="#f4ecd8"/><rect x="17" y="5" width="1" height="1" fill="#1a0f08"/><rect x="26" y="5" width="2" height="1" fill="#1a0f08"/><rect x="28" y="5" width="1" height="1" fill="#c9a26b"/><rect x="29" y="5" width="1" height="1" fill="#1a0f08"/><rect x="31" y="5" width="1" height="1" fill="#1a0f08"/><rect x="37" y="5" width="1" height="1" fill="#1a0f08"/><rect x="38" y="5" width="2" height="1" fill="#f4ecd8"/><rect x="40" y="5" width="1" height="1" fill="#1a0f08"/><rect x="46" y="5" width="1" height="1" fill="#1a0f08"/><rect x="47" y="5" width="1" height="1" fill="#c8a064"/><rect x="48" y="5" width="2" height="1" fill="#1a0f08"/><rect x="50" y="5" width="3" height="1" fill="#c8a064"/><rect x="53" y="5" width="2" height="1" fill="#1a0f08"/><rect x="55" y="5" width="1" height="1" fill="#c8a064"/><rect x="56" y="5" width="1" height="1" fill="#1a0f08"/><rect x="60" y="5" width="1" height="1" fill="#1a0f08"/><rect x="61" y="5" width="2" height="1" fill="#f4ecd8"/><rect x="63" y="5" width="1" height="1" fill="#1a0f08"/><rect x="70" y="5" width="1" height="1" fill="#1a0f08"/><rect x="71" y="5" width="1" height="1" fill="#f2c14e"/><rect x="72" y="5" width="2" height="1" fill="#ffe68a"/><rect x="74" y="5" width="1" height="1" fill="#f2c14e"/><rect x="75" y="5" width="1" height="1" fill="#1a0f08"/><rect x="76" y="5" width="1" height="1" fill="#f2c14e"/><rect x="77" y="5" width="1" height="1" fill="#1a0f08"/><rect x="80" y="5" width="1" height="1" fill="#1a0f08"/><rect x="81" y="5" width="1" height="1" fill="#f4ecd8"/><rect x="82" y="5" width="3" height="1" fill="#1a0f08"/><rect x="85" y="5" width="1" height="1" fill="#f4ecd8"/><rect x="86" y="5" width="1" height="1" fill="#1a0f08"/><rect x="0" y="6" width="1" height="1" fill="#1a0f08"/><rect x="1" y="6" width="8" height="1" fill="#d93a3a"/><rect x="9" y="6" width="1" height="1" fill="#8f1d24"/><rect x="10" y="6" width="1" height="1" fill="#1a0f08"/><rect x="13" y="6" width="1" height="1" fill="#1a0f08"/><rect x="14" y="6" width="1" height="1" fill="#f4ecd8"/><rect x="15" y="6" width="1" height="1" fill="#1a0f08"/><rect x="16" y="6" width="1" height="1" fill="#f4ecd8"/><rect x="17" y="6" width="1" height="1" fill="#1a0f08"/><rect x="25" y="6" width="1" height="1" fill="#1a0f08"/><rect x="26" y="6" width="4" height="1" fill="#3b3f4a"/><rect x="30" y="6" width="1" height="1" fill="#1a0f08"/><rect x="36" y="6" width="1" height="1" fill="#1a0f08"/><rect x="37" y="6" width="1" height="1" fill="#f4ecd8"/><rect x="38" y="6" width="1" height="1" fill="#1a0f08"/><rect x="39" y="6" width="1" height="1" fill="#f4ecd8"/><rect x="40" y="6" width="1" height="1" fill="#1a0f08"/><rect x="46" y="6" width="1" height="1" fill="#1a0f08"/><rect x="47" y="6" width="1" height="1" fill="#c8a064"/><rect x="48" y="6" width="1" height="1" fill="#1a0f08"/><rect x="49" y="6" width="1" height="1" fill="#c8a064"/><rect x="50" y="6" width="3" height="1" fill="#1a0f08"/><rect x="53" y="6" width="1" height="1" fill="#8a6436"/><rect x="54" y="6" width="1" height="1" fill="#1a0f08"/><rect x="55" y="6" width="1" height="1" fill="#c8a064"/><rect x="56" y="6" width="1" height="1" fill="#1a0f08"/><rect x="59" y="6" width="1" height="1" fill="#1a0f08"/><rect x="60" y="6" width="1" height="1" fill="#f4ecd8"/><rect x="61" y="6" width="1" height="1" fill="#1a0f08"/><rect x="62" y="6" width="1" height="1" fill="#f4ecd8"/><rect x="63" y="6" width="1" height="1" fill="#1a0f08"/><rect x="69" y="6" width="1" height="1" fill="#1a0f08"/><rect x="70" y="6" width="1" height="1" fill="#f2c14e"/><rect x="71" y="6" width="1" height="1" fill="#ffe68a"/><rect x="72" y="6" width="5" height="1" fill="#f2c14e"/><rect x="77" y="6" width="1" height="1" fill="#b8801f"/><rect x="78" y="6" width="1" height="1" fill="#1a0f08"/><rect x="80" y="6" width="1" height="1" fill="#1a0f08"/><rect x="81" y="6" width="1" height="1" fill="#f4ecd8"/><rect x="82" y="6" width="2" height="1" fill="#1a0f08"/><rect x="84" y="6" width="2" height="1" fill="#f4ecd8"/><rect x="86" y="6" width="1" height="1" fill="#1a0f08"/><rect x="1" y="7" width="1" height="1" fill="#1a0f08"/><rect x="2" y="7" width="6" height="1" fill="#d93a3a"/><rect x="8" y="7" width="1" height="1" fill="#8f1d24"/><rect x="9" y="7" width="1" height="1" fill="#1a0f08"/><rect x="12" y="7" width="1" height="1" fill="#1a0f08"/><rect x="13" y="7" width="1" height="1" fill="#f4ecd8"/><rect x="14" y="7" width="2" height="1" fill="#1a0f08"/><rect x="16" y="7" width="1" height="1" fill="#f4ecd8"/><rect x="17" y="7" width="1" height="1" fill="#1a0f08"/><rect x="24" y="7" width="1" height="1" fill="#1a0f08"/><rect x="25" y="7" width="1" height="1" fill="#3b3f4a"/><rect x="26" y="7" width="1" height="1" fill="#6b7280"/><rect x="27" y="7" width="4" height="1" fill="#3b3f4a"/><rect x="31" y="7" width="1" height="1" fill="#1a0f08"/><rect x="35" y="7" width="1" height="1" fill="#1a0f08"/><rect x="36" y="7" width="1" height="1" fill="#f4ecd8"/><rect x="37" y="7" width="2" height="1" fill="#1a0f08"/><rect x="39" y="7" width="1" height="1" fill="#f4ecd8"/><rect x="40" y="7" width="1" height="1" fill="#1a0f08"/><rect x="46" y="7" width="1" height="1" fill="#1a0f08"/><rect x="47" y="7" width="1" height="1" fill="#c8a064"/><rect x="48" y="7" width="1" height="1" fill="#1a0f08"/><rect x="49" y="7" width="1" height="1" fill="#c8a064"/><rect x="50" y="7" width="1" height="1" fill="#1a0f08"/><rect x="51" y="7" width="1" height="1" fill="#c8a064"/><rect x="52" y="7" width="1" height="1" fill="#8a6436"/><rect x="53" y="7" width="1" height="1" fill="#1a0f08"/><rect x="54" y="7" width="1" height="1" fill="#8a6436"/><rect x="55" y="7" width="1" height="1" fill="#c8a064"/><rect x="56" y="7" width="1" height="1" fill="#1a0f08"/><rect x="58" y="7" width="1" height="1" fill="#1a0f08"/><rect x="59" y="7" width="1" height="1" fill="#f4ecd8"/><rect x="60" y="7" width="2" height="1" fill="#1a0f08"/><rect x="62" y="7" width="1" height="1" fill="#f4ecd8"/><rect x="63" y="7" width="1" height="1" fill="#1a0f08"/><rect x="69" y="7" width="1" height="1" fill="#1a0f08"/><rect x="70" y="7" width="5" height="1" fill="#f2c14e"/><rect x="75" y="7" width="3" height="1" fill="#b8801f"/><rect x="78" y="7" width="1" height="1" fill="#1a0f08"/><rect x="80" y="7" width="1" height="1" fill="#1a0f08"/><rect x="81" y="7" width="1" height="1" fill="#f4ecd8"/><rect x="82" y="7" width="1" height="1" fill="#1a0f08"/><rect x="83" y="7" width="1" height="1" fill="#f4ecd8"/><rect x="84" y="7" width="1" height="1" fill="#1a0f08"/><rect x="85" y="7" width="1" height="1" fill="#f4ecd8"/><rect x="86" y="7" width="1" height="1" fill="#1a0f08"/><rect x="2" y="8" width="1" height="1" fill="#1a0f08"/><rect x="3" y="8" width="4" height="1" fill="#d93a3a"/><rect x="7" y="8" width="1" height="1" fill="#8f1d24"/><rect x="8" y="8" width="1" height="1" fill="#1a0f08"/><rect x="12" y="8" width="1" height="1" fill="#1a0f08"/><rect x="13" y="8" width="5" height="1" fill="#f4ecd8"/><rect x="18" y="8" width="1" height="1" fill="#1a0f08"/><rect x="23" y="8" width="1" height="1" fill="#1a0f08"/><rect x="24" y="8" width="1" height="1" fill="#3b3f4a"/><rect x="25" y="8" width="2" height="1" fill="#6b7280"/><rect x="27" y="8" width="4" height="1" fill="#3b3f4a"/><rect x="31" y="8" width="1" height="1" fill="#22252c"/><rect x="32" y="8" width="1" height="1" fill="#1a0f08"/><rect x="35" y="8" width="1" height="1" fill="#1a0f08"/><rect x="36" y="8" width="5" height="1" fill="#f4ecd8"/><rect x="41" y="8" width="1" height="1" fill="#1a0f08"/><rect x="46" y="8" width="1" height="1" fill="#1a0f08"/><rect x="47" y="8" width="1" height="1" fill="#c8a064"/><rect x="48" y="8" width="1" height="1" fill="#1a0f08"/><rect x="49" y="8" width="1" height="1" fill="#8a6436"/><rect x="50" y="8" width="3" height="1" fill="#1a0f08"/><rect x="53" y="8" width="1" height="1" fill="#8a6436"/><rect x="54" y="8" width="1" height="1" fill="#1a0f08"/><rect x="55" y="8" width="1" height="1" fill="#c8a064"/><rect x="56" y="8" width="1" height="1" fill="#1a0f08"/><rect x="58" y="8" width="1" height="1" fill="#1a0f08"/><rect x="59" y="8" width="5" height="1" fill="#f4ecd8"/><rect x="64" y="8" width="1" height="1" fill="#1a0f08"/><rect x="70" y="8" width="1" height="1" fill="#1a0f08"/><rect x="71" y="8" width="2" height="1" fill="#f2c14e"/><rect x="73" y="8" width="4" height="1" fill="#b8801f"/><rect x="77" y="8" width="1" height="1" fill="#1a0f08"/><rect x="80" y="8" width="1" height="1" fill="#1a0f08"/><rect x="81" y="8" width="2" height="1" fill="#f4ecd8"/><rect x="83" y="8" width="2" height="1" fill="#1a0f08"/><rect x="85" y="8" width="1" height="1" fill="#f4ecd8"/><rect x="86" y="8" width="1" height="1" fill="#1a0f08"/><rect x="3" y="9" width="1" height="1" fill="#1a0f08"/><rect x="4" y="9" width="2" height="1" fill="#d93a3a"/><rect x="6" y="9" width="1" height="1" fill="#8f1d24"/><rect x="7" y="9" width="1" height="1" fill="#1a0f08"/><rect x="13" y="9" width="3" height="1" fill="#1a0f08"/><rect x="16" y="9" width="1" height="1" fill="#f4ecd8"/><rect x="17" y="9" width="1" height="1" fill="#1a0f08"/><rect x="23" y="9" width="1" height="1" fill="#1a0f08"/><rect x="24" y="9" width="1" height="1" fill="#3b3f4a"/><rect x="25" y="9" width="1" height="1" fill="#6b7280"/><rect x="26" y="9" width="5" height="1" fill="#3b3f4a"/><rect x="31" y="9" width="1" height="1" fill="#22252c"/><rect x="32" y="9" width="1" height="1" fill="#1a0f08"/><rect x="36" y="9" width="3" height="1" fill="#1a0f08"/><rect x="39" y="9" width="1" height="1" fill="#f4ecd8"/><rect x="40" y="9" width="1" height="1" fill="#1a0f08"/><rect x="47" y="9" width="1" height="1" fill="#1a0f08"/><rect x="48" y="9" width="1" height="1" fill="#8a6436"/><rect x="49" y="9" width="1" height="1" fill="#1a0f08"/><rect x="50" y="9" width="3" height="1" fill="#8a6436"/><rect x="53" y="9" width="1" height="1" fill="#1a0f08"/><rect x="54" y="9" width="1" height="1" fill="#8a6436"/><rect x="55" y="9" width="1" height="1" fill="#1a0f08"/><rect x="59" y="9" width="3" height="1" fill="#1a0f08"/><rect x="62" y="9" width="1" height="1" fill="#f4ecd8"/><rect x="63" y="9" width="1" height="1" fill="#1a0f08"/><rect x="71" y="9" width="1" height="1" fill="#1a0f08"/><rect x="72" y="9" width="2" height="1" fill="#b8801f"/><rect x="74" y="9" width="3" height="1" fill="#1a0f08"/><rect x="80" y="9" width="1" height="1" fill="#1a0f08"/><rect x="81" y="9" width="1" height="1" fill="#f4ecd8"/><rect x="82" y="9" width="3" height="1" fill="#1a0f08"/><rect x="85" y="9" width="1" height="1" fill="#f4ecd8"/><rect x="86" y="9" width="1" height="1" fill="#1a0f08"/><rect x="4" y="10" width="1" height="1" fill="#1a0f08"/><rect x="5" y="10" width="1" height="1" fill="#8f1d24"/><rect x="6" y="10" width="1" height="1" fill="#1a0f08"/><rect x="15" y="10" width="1" height="1" fill="#1a0f08"/><rect x="16" y="10" width="1" height="1" fill="#f4ecd8"/><rect x="17" y="10" width="1" height="1" fill="#1a0f08"/><rect x="23" y="10" width="1" height="1" fill="#1a0f08"/><rect x="24" y="10" width="6" height="1" fill="#3b3f4a"/><rect x="30" y="10" width="2" height="1" fill="#22252c"/><rect x="32" y="10" width="1" height="1" fill="#1a0f08"/><rect x="38" y="10" width="1" height="1" fill="#1a0f08"/><rect x="39" y="10" width="1" height="1" fill="#f4ecd8"/><rect x="40" y="10" width="1" height="1" fill="#1a0f08"/><rect x="48" y="10" width="1" height="1" fill="#1a0f08"/><rect x="49" y="10" width="1" height="1" fill="#8a6436"/><rect x="50" y="10" width="3" height="1" fill="#1a0f08"/><rect x="53" y="10" width="1" height="1" fill="#8a6436"/><rect x="54" y="10" width="1" height="1" fill="#1a0f08"/><rect x="61" y="10" width="1" height="1" fill="#1a0f08"/><rect x="62" y="10" width="1" height="1" fill="#f4ecd8"/><rect x="63" y="10" width="1" height="1" fill="#1a0f08"/><rect x="72" y="10" width="2" height="1" fill="#1a0f08"/><rect x="81" y="10" width="1" height="1" fill="#1a0f08"/><rect x="82" y="10" width="3" height="1" fill="#f4ecd8"/><rect x="85" y="10" width="1" height="1" fill="#1a0f08"/><rect x="5" y="11" width="1" height="1" fill="#1a0f08"/><rect x="16" y="11" width="1" height="1" fill="#1a0f08"/><rect x="24" y="11" width="1" height="1" fill="#1a0f08"/><rect x="25" y="11" width="4" height="1" fill="#3b3f4a"/><rect x="29" y="11" width="2" height="1" fill="#22252c"/><rect x="31" y="11" width="1" height="1" fill="#1a0f08"/><rect x="39" y="11" width="1" height="1" fill="#1a0f08"/><rect x="49" y="11" width="1" height="1" fill="#1a0f08"/><rect x="50" y="11" width="3" height="1" fill="#8a6436"/><rect x="53" y="11" width="1" height="1" fill="#1a0f08"/><rect x="62" y="11" width="1" height="1" fill="#1a0f08"/><rect x="82" y="11" width="3" height="1" fill="#1a0f08"/><rect x="25" y="12" width="1" height="1" fill="#1a0f08"/><rect x="26" y="12" width="4" height="1" fill="#22252c"/><rect x="30" y="12" width="1" height="1" fill="#1a0f08"/><rect x="50" y="12" width="3" height="1" fill="#1a0f08"/><rect x="26" y="13" width="4" height="1" fill="#1a0f08"/></svg>
